<?xml version="1.0" encoding="iso-8859-1"?>
<!-- Generator: Adobe Illustrator 19.0.0, SVG Export Plug-In . SVG Version: 6.00 Build 0)  -->
<svg version="1.1" id="Capa_1" xmlns="http://www.w3.org/2000/svg" xmlns:xlink="http://www.w3.org/1999/xlink" x="0px" y="0px"
	 viewBox="0 0 512 512" style="enable-background:new 0 0 512 512;" xml:space="preserve">
<g>
	<g>
		<path d="M337.5,21.5h-36c-4.143,0-7.5,3.357-7.5,7.5v36c0,4.143,3.357,7.5,7.5,7.5h36c4.143,0,7.5-3.357,7.5-7.5V29
			C345,24.857,341.643,21.5,337.5,21.5z M330,57.5h-21v-21h21V57.5z"/>
	</g>
</g>
<g>
	<g>
		<path d="M194.5,415.5h-36c-4.143,0-7.5,3.357-7.5,7.5v36c0,4.143,3.357,7.5,7.5,7.5h36c4.143,0,7.5-3.357,7.5-7.5v-36
			C202,418.857,198.643,415.5,194.5,415.5z M187,451.5h-21v-21h21V451.5z"/>
	</g>
</g>
<g>
	<g>
		<path d="M325.5,445.5h-28c-4.143,0-7.5,3.357-7.5,7.5v28c0,4.143,3.357,7.5,7.5,7.5h28c4.143,0,7.5-3.357,7.5-7.5v-28
			C333,448.857,329.643,445.5,325.5,445.5z M318,473.5h-13v-13h13V473.5z"/>
	</g>
</g>
<g>
	<g>
		<path d="M172.5,14.5h-28c-4.143,0-7.5,3.357-7.5,7.5v28c0,4.143,3.357,7.5,7.5,7.5h28c4.143,0,7.5-3.357,7.5-7.5V22
			C180,17.857,176.643,14.5,172.5,14.5z M165,42.5h-13v-13h13V42.5z"/>
	</g>
</g>
<g>
	<g>
		<path d="M222.5,66.5h-28c-4.143,0-7.5,3.357-7.5,7.5v28c0,4.143,3.357,7.5,7.5,7.5h28c4.143,0,7.5-3.357,7.5-7.5V74
			C230,69.857,226.643,66.5,222.5,66.5z M215,94.5h-13v-13h13V94.5z"/>
	</g>
</g>
<g>
	<g>
		<path d="M464.5,136.5h-28c-4.143,0-7.5,3.357-7.5,7.5v28c0,4.143,3.357,7.5,7.5,7.5h28c4.143,0,7.5-3.357,7.5-7.5v-28
			C472,139.857,468.643,136.5,464.5,136.5z M457,164.5h-13v-13h13V164.5z"/>
	</g>
</g>
<g>
	<g>
		<path d="M57.5,308.5h-28c-4.143,0-7.5,3.357-7.5,7.5v28c0,4.143,3.357,7.5,7.5,7.5h28c4.143,0,7.5-3.357,7.5-7.5v-28
			C65,311.857,61.643,308.5,57.5,308.5z M50,336.5H37v-13h13V336.5z"/>
	</g>
</g>
<g>
	<g>
		<path d="M451.643,243.045v-0.001c-12.206-15.971-37.736-46.739-71.586-73.374C338.171,136.711,296.601,120,256.5,120
			s-81.671,16.711-123.557,49.67c-33.85,26.635-59.38,57.403-71.586,73.375c-7.18,9.394-7.18,22.517,0,31.911
			c12.206,15.971,37.736,46.739,71.586,73.374C174.829,381.289,216.399,398,256.5,398s81.671-16.711,123.557-49.67
			c33.849-26.635,59.38-57.403,71.586-73.375C458.823,265.561,458.823,252.438,451.643,243.045z M439.725,265.846
			C418.721,293.33,343.433,383,256.5,383S94.279,293.33,73.275,265.848c-3.081-4.032-3.081-9.663,0-13.694
			C94.279,224.67,169.567,135,256.5,135s162.221,89.67,183.225,117.152C442.806,256.184,442.806,261.815,439.725,265.846z"/>
	</g>
</g>
<g>
	<g>
		<path d="M355.412,276.397c-3.426,0-6.424,2.322-7.259,5.645c-10.7,42.546-50.319,73.728-96.652,71.328
			c-48.534-2.514-87.545-42.069-89.428-90.631c-2.086-53.803,41.079-98.239,94.427-98.239c44.486,0,81.887,30.899,91.878,72.361
			c0.811,3.365,3.82,5.735,7.282,5.735h0.007c4.826,0,8.437-4.502,7.309-9.195c-11.854-49.309-57.162-85.737-110.474-83.829
			c-56.947,2.038-103.169,48.082-105.415,105.021C144.627,316.97,194.658,368.5,256.5,368.5c51.153,0,94.22-35.258,106.188-82.748
			C363.884,281.007,360.305,276.397,355.412,276.397z"/>
	</g>
</g>
<g>
	<g>
		<path d="M271.022,230.5h-29.045c-6.604,0-11.978,5.373-11.978,11.978v29.045c0,6.604,5.373,11.978,11.978,11.978h29.045
			c6.604,0,11.978-5.373,11.978-11.978v-29.045C283,235.873,277.627,230.5,271.022,230.5z M268,268.5h-23v-23h23V268.5z"/>
	</g>
</g>
<g>
	<g>
		<path d="M311.5,264.5c4.143,0,7.5-3.357,7.5-7.5c0-4.143-3.357-7.5-7.5-7.5H305v-11h6.5c4.143,0,7.5-3.357,7.5-7.5
			s-3.357-7.5-7.5-7.5h-8.235c-2.432-6.022-7.243-10.833-13.265-13.265V202c0-4.143-3.357-7.5-7.5-7.5s-7.5,3.357-7.5,7.5v6.5h-11
			V202c0-4.143-3.357-7.5-7.5-7.5s-7.5,3.357-7.5,7.5v6.5h-11V202c0-4.143-3.357-7.5-7.5-7.5s-7.5,3.357-7.5,7.5v8.235
			c-6.022,2.432-10.833,7.243-13.265,13.265H201.5c-4.143,0-7.5,3.357-7.5,7.5s3.357,7.5,7.5,7.5h6.5v11h-6.5
			c-4.143,0-7.5,3.357-7.5,7.5c0,4.143,3.357,7.5,7.5,7.5h6.5v11h-6.5c-4.143,0-7.5,3.357-7.5,7.5s3.357,7.5,7.5,7.5h8.235
			c2.432,6.022,7.243,10.833,13.265,13.265V312c0,4.143,3.357,7.5,7.5,7.5s7.5-3.357,7.5-7.5v-6.5h11v6.5c0,4.143,3.357,7.5,7.5,7.5
			s7.5-3.357,7.5-7.5v-6.5h11v6.5c0,4.143,3.357,7.5,7.5,7.5s7.5-3.357,7.5-7.5v-8.235c6.022-2.432,10.833-7.243,13.265-13.265
			h8.235c4.143,0,7.5-3.357,7.5-7.5s-3.357-7.5-7.5-7.5H305v-11H311.5z M290,281.571c0,4.923-4.006,8.929-8.929,8.929h-49.143
			c-4.923,0-8.929-4.006-8.929-8.929v-49.143c0-4.923,4.006-8.929,8.929-8.929h49.143c4.923,0,8.929,4.006,8.929,8.929V281.571z"/>
	</g>
</g>
<g>
	<g>
		<path d="M510.995,52.75l-14.75-25.548c-1.34-2.32-3.815-3.75-6.495-3.75h-27.391l-11.114-19.25c-1.34-2.32-3.815-3.75-6.495-3.75
			h-29.5c-2.68,0-5.155,1.43-6.495,3.75l-14.75,25.548c-1.34,2.32-1.34,5.18,0,7.5L405.985,58l-11.98,20.75
			c-1.34,2.32-1.34,5.18,0,7.5l14.75,25.548c1.34,2.32,3.815,3.75,6.495,3.75h29.5c2.68,0,5.155-1.43,6.495-3.75l12.846-22.25
			h25.659c2.68,0,5.155-1.43,6.495-3.75l14.75-25.548C512.335,57.93,512.335,55.07,510.995,52.75z M419.58,15.452h20.84
			l10.059,17.423l-9.57,16.577H418.37L409.16,33.5L419.58,15.452z M440.42,100.548h-20.84L409.16,82.5l9.21-15.952h23.26
			l9.21,15.952L440.42,100.548z M485.42,74.548h-20.84l-10.059-17.423l10.78-18.672h20.119L495.84,56.5L485.42,74.548z"/>
	</g>
</g>
<g>
	<g>
		<path d="M117.995,448.75l-14.75-25.548c-1.34-2.32-3.815-3.75-6.495-3.75H69.359l-11.114-19.25c-1.34-2.32-3.815-3.75-6.495-3.75
			h-29.5c-2.68,0-5.155,1.43-6.495,3.75L1.005,425.75c-1.34,2.32-1.34,5.18,0,7.5L12.985,454l-11.98,20.75
			c-1.34,2.32-1.34,5.18,0,7.5l14.75,25.548c1.34,2.32,3.815,3.75,6.495,3.75h29.5c2.68,0,5.155-1.43,6.495-3.75l12.846-22.25H96.75
			c2.68,0,5.155-1.43,6.495-3.75l14.75-25.548C119.335,453.93,119.335,451.07,117.995,448.75z M26.58,411.452h20.84l10.059,17.423
			l-9.57,16.577H25.37L16.16,429.5L26.58,411.452z M47.42,496.548H26.58L16.16,478.5l9.21-15.952h23.26l9.21,15.952L47.42,496.548z
			 M92.42,470.548H71.58l-10.059-17.423l10.78-18.672H92.42l10.42,18.048L92.42,470.548z"/>
	</g>
</g>
<g>
	<g>
		<path d="M117.5,76.5H91V64c0-4.143-3.357-7.5-7.5-7.5h-40c-4.143,0-7.5,3.357-7.5,7.5v40c0,4.143,3.357,7.5,7.5,7.5H56V138
			c0,4.143,3.357,7.5,7.5,7.5h54c4.143,0,7.5-3.357,7.5-7.5V84C125,79.857,121.643,76.5,117.5,76.5z M56,84v12.5h-5v-25h25v5H63.5
			C59.357,76.5,56,79.857,56,84z M110,130.5H71v-39h39V130.5z"/>
	</g>
</g>
<g>
	<g>
		<path d="M450.5,417.5H437V388c0-4.143-3.357-7.5-7.5-7.5h-46c-4.143,0-7.5,3.357-7.5,7.5v46c0,4.143,3.357,7.5,7.5,7.5H411V457
			c0,4.143,3.357,7.5,7.5,7.5h32c4.143,0,7.5-3.357,7.5-7.5v-32C458,420.857,454.643,417.5,450.5,417.5z M422,426.5h-31v-31h31
			V426.5z M443,449.5h-17v-8h3.5c4.143,0,7.5-3.357,7.5-7.5v-1.5h6V449.5z"/>
	</g>
</g>
<g>
</g>
<g>
</g>
<g>
</g>
<g>
</g>
<g>
</g>
<g>
</g>
<g>
</g>
<g>
</g>
<g>
</g>
<g>
</g>
<g>
</g>
<g>
</g>
<g>
</g>
<g>
</g>
<g>
</g>
</svg>
